Coordinates
datacolumns 11
datarows 32
range 1.05 1.36
inDegrees=yes
Units are S.I. units (second, meters, Newtons, ...)
If the header above contains a line with 'inDegrees', this indicates whether rotational values are in degrees (yes) or radians (no).
endheader
time	pelvis_tilt	pelvis_tx	pelvis_ty	hip_flexion_l	hip_flexion_r	knee_angle_l	knee_angle_r	ankle_angle_l	ankle_angle_r	lumbar
1.05	-25.5758289	0.11329134	0.77720147	79.78842683	79.78842683	-66.5188045	-66.5188045	12.51263726	12.51263726	-36.72413032
1.06	-25.77205385	0.11592886	0.78049469	79.3537785	79.3537785	-65.87644832	-65.87644832	12.50580571	12.50580571	-36.3155624
1.07	-25.95534176	0.11854574	0.7838909	78.89290369	78.89290369	-65.20708429	-65.20708429	12.47865115	12.47865115	-35.9054045
1.08	-26.12838696	0.12117664	0.78733944	78.41394721	78.41394721	-64.52840536	-64.52840536	12.43648844	12.43648844	-35.4849718
1.09	-26.12872382	0.12389135	0.79130674	77.71845951	77.71845951	-63.78483942	-63.78483942	12.17676774	12.17676774	-35.27706325
1.1	-26.34715672	0.12640133	0.79471682	77.28105674	77.28105674	-63.06611773	-63.06611773	12.17534004	12.17534004	-34.75965643
1.11	-26.51397773	0.12894073	0.79829052	76.774477	76.774477	-62.32013841	-62.32013841	12.12831433	12.12831433	-34.29035574
1.12	-26.64132267	0.13149964	0.80195984	76.21856031	76.21856031	-61.55833624	-61.55833624	12.04598204	12.04598204	-33.84976983
1.13	-26.74246728	0.13407104	0.80567463	75.63116285	75.63116285	-60.78695166	-60.78695166	11.9416397	11.9416397	-33.4174391
1.14	-26.83710458	0.13664106	0.8094003	75.02547337	75.02547337	-59.98825885	-59.98825885	11.83399019	11.83399019	-32.96228084
1.15	-26.59718435	0.13951653	0.81383323	74.05312893	74.05312893	-59.18943874	-59.18943874	11.36681966	11.36681966	-32.92338756
1.16	-26.77005065	0.14204046	0.81721595	73.5634409	73.5634409	-58.43101465	-58.43101465	11.35880672	11.35880672	-32.29498585
1.17	-26.60920099	0.14484794	0.82142462	72.67695679	72.67695679	-57.61530461	-57.61530461	11.02707412	11.02707412	-32.1124392
1.18	-26.74505537	0.14742023	0.82478827	72.15941058	72.15941058	-56.86908262	-56.86908262	11.01114693	11.01114693	-31.48887775
1.19	-26.80448169	0.15007592	0.82829761	71.55240098	71.55240098	-56.10793538	-56.10793538	10.94478036	10.94478036	-30.9418752
1.2	-26.45168509	0.15310386	0.8327084	70.46962204	70.46962204	-55.30074759	-55.30074759	10.53517421	10.53517421	-30.90474459
1.21	-26.38470712	0.15592611	0.83635735	69.73049653	69.73049653	-54.54622869	-54.54622869	10.37289636	10.37289636	-30.46389314
1.22	-26.28061978	0.15877914	0.84002329	68.96077371	68.96077371	-53.80563301	-53.80563301	10.2223389	10.2223389	-30.0431233
1.23	-26.35122604	0.1614995	0.8431772	68.40657545	68.40657545	-53.09451862	-53.09451862	10.20840122	10.20840122	-29.35411128
1.24	-26.33886351	0.16429878	0.84649326	67.75178181	67.75178181	-52.36530626	-52.36530626	10.14217021	10.14217021	-28.75790529
1.25	-25.90063163	0.16748401	0.85075002	66.60914507	66.60914507	-51.60679537	-51.60679537	9.77272212	9.77272212	-28.69821757
1.26	-25.94565261	0.17026223	0.85379519	66.04691248	66.04691248	-50.92351788	-50.92351788	9.75187008	9.75187008	-27.97018094
1.27	-25.61278133	0.17337736	0.85773219	65.02626936	65.02626936	-50.16238446	-50.16238446	9.44392292	9.44392292	-27.72547224
1.28	-25.64750458	0.17620168	0.86074063	64.45348144	64.45348144	-49.47732739	-49.47732739	9.42354281	9.42354281	-26.96967055
1.29	-25.29879939	0.17938584	0.86462151	63.41974935	63.41974935	-48.71849045	-48.71849045	9.11298954	9.11298954	-26.69893836
1.3	-25.30462531	0.18229646	0.86763427	62.81333576	62.81333576	-48.03041924	-48.03041924	9.07623456	9.07623456	-25.93923515
1.31	-24.96262898	0.18552138	0.87145754	61.78468414	61.78468414	-47.26405098	-47.26405098	8.7657336	8.7657336	-25.62459922
1.32	-24.98429631	0.18849016	0.87438949	61.19378124	61.19378124	-46.57451077	-46.57451077	8.75030967	8.75030967	-24.80772991
1.33	-24.59035981	0.19184162	0.87827571	60.09799331	60.09799331	-45.7960116	-45.7960116	8.43598441	8.43598441	-24.52472004
1.34	-24.38690619	0.19507667	0.88171527	59.22426481	59.22426481	-45.04968847	-45.04968847	8.2767468	8.2767468	-23.97683515
1.35	-24.15063144	0.1983546	0.88517774	58.31416672	58.31416672	-44.29944217	-44.29944217	8.1209257	8.1209257	-23.45604461
1.36	-23.89959277	0.20169326	0.88866817	57.37752231	57.37752231	-43.5385906	-43.5385906	7.97631543	7.97631543	-22.94218847
